<svg width="178" height="178" viewBox="0 0 178 178" fill="none" xmlns="http://www.w3.org/2000/svg">
<path d="M85.7641 157.883L84.0021 173.182L73.4459 171.966L73.7429 169.387L81.4142 170.271L81.8195 166.752L74.7602 165.939L75.0572 163.36L82.1165 164.173L82.5822 160.13L74.8453 159.239L75.1424 156.66L85.7641 157.883Z" fill="#F2F2F2"/>
<path d="M63.3152 168.662L62.3187 163.056L57.7024 166.525L54.9473 165.476L61.5566 160.483L59.7899 150.841L62.6889 151.945L63.947 158.78L69.412 154.505L72.3315 155.616L64.577 161.515L66.2142 169.766L63.3152 168.662Z" fill="#F2F2F2"/>
<path d="M57.417 149.786L49.0789 162.733L43.1971 158.945C41.705 157.984 40.7657 156.856 40.379 155.56C39.972 154.269 40.2013 152.951 41.0669 151.607C41.9325 150.263 43.0412 149.503 44.3932 149.327C45.7249 149.156 47.1367 149.55 48.6288 150.511L52.0691 152.727L54.9755 148.214L57.417 149.786ZM48.0429 158.978L50.6635 154.909L47.2972 152.741C46.471 152.209 45.7393 151.991 45.1021 152.086C44.4526 152.174 43.9213 152.538 43.5084 153.18C43.0955 153.821 42.9835 154.455 43.1724 155.083C43.3491 155.703 43.8504 156.278 44.6766 156.81L48.0429 158.978Z" fill="#F2F2F2"/>
<path d="M46.133 142.569L35.6053 153.809L33.4858 151.823L42.1787 142.543L36.5428 137.264L38.3777 135.305L46.133 142.569Z" fill="#F2F2F2"/>
<path d="M18.4777 131.843C18.8699 129.732 20.0059 128.024 21.8858 126.72C23.7656 125.416 25.7628 124.95 27.8771 125.322C29.9915 125.693 31.6925 126.807 32.9799 128.663C34.2674 130.519 34.7151 132.502 34.323 134.613C33.9308 136.723 32.7948 138.431 30.9149 139.735C29.035 141.039 27.0379 141.505 24.9235 141.134C22.8092 140.762 21.1082 139.648 19.8207 137.792C18.5332 135.937 18.0856 133.953 18.4777 131.843ZM31.6313 133.936C31.8795 132.622 31.594 131.374 30.7747 130.193C29.9554 129.012 28.8865 128.307 27.5682 128.08C26.2378 127.86 24.9038 128.214 23.5662 129.142C22.2286 130.07 21.4357 131.192 21.1874 132.506C20.9272 133.829 21.2067 135.081 22.026 136.262C22.8453 137.443 23.9202 138.144 25.2505 138.363C26.5689 138.591 27.8969 138.241 29.2345 137.313C30.5721 136.385 31.371 135.259 31.6313 133.936Z" fill="#F2F2F2"/>
<path d="M24.0698 112.166L19.714 117.89L20.6779 120.157L26.428 117.713L27.564 120.386L13.3913 126.41L10.818 120.356C10.1582 118.804 10.0005 117.421 10.345 116.207C10.6759 114.998 11.4556 114.133 12.6839 113.611C14.6816 112.762 16.5308 113.251 18.2317 115.078L22.7703 109.108L24.0698 112.166ZM14.6039 122.739L18.3293 121.156L16.892 117.775C16.2207 116.195 15.2642 115.67 14.0224 116.197C12.7806 116.725 12.4953 117.779 13.1666 119.358L14.6039 122.739Z" fill="#F2F2F2"/>
<path d="M22.0574 105.567L6.82565 107.838L5.25906 97.3279L7.82669 96.9451L8.96515 104.583L12.4684 104.061L11.4208 97.0322L13.9884 96.6495L15.0361 103.678L19.0616 103.078L17.9134 95.3749L20.481 94.9921L22.0574 105.567Z" fill="#F2F2F2"/>
<path d="M15.895 75.2628C15.3083 75.6905 14.6528 75.8476 13.9283 75.7341C13.2038 75.6205 12.6277 75.2705 12.2 74.6839C11.7723 74.0973 11.6152 73.4417 11.7288 72.7172C11.8423 71.9927 12.1923 71.4167 12.7789 70.989C13.3655 70.5613 14.0211 70.4042 14.7456 70.5177C15.4701 70.6312 16.0462 70.9813 16.4738 71.5679C16.9015 72.1545 17.0586 72.81 16.9451 73.5345C16.8316 74.259 16.4816 74.8351 15.895 75.2628Z" fill="#F2F2F2"/>
<path d="M30.0588 54.3307L17.7729 45.0454L24.1798 36.5681L26.2508 38.1334L21.5949 44.2939L24.4206 46.4295L28.7052 40.7604L30.7762 42.3257L26.4917 47.9947L29.7387 50.4487L34.4344 44.2356L36.5054 45.8008L30.0588 54.3307Z" fill="#F2F2F2"/>
<path d="M30.7363 28.7144L36.1604 30.4448L35.2428 24.7441L37.4548 22.7953L38.7926 30.9698L48.1468 33.8997L45.8192 35.9503L39.1854 33.8783L40.4213 40.7059L38.0772 42.771L36.4717 33.1611L28.4087 30.7649L30.7363 28.7144Z" fill="#F2F2F2"/>
<path d="M52.2612 32.1817L44.691 18.7707L50.7834 15.3317C52.3289 14.4593 53.7649 14.154 55.0916 14.4157C56.4238 14.6573 57.4828 15.4743 58.2686 16.8665C59.0545 18.2586 59.2103 19.5938 58.736 20.8721C58.2673 22.1303 57.2603 23.1956 55.7148 24.068L52.1514 26.0795L54.7901 30.7541L52.2612 32.1817ZM48.4961 19.6039L50.8752 23.8188L54.3621 21.8505C55.2178 21.3675 55.7519 20.8218 55.9643 20.2135C56.1895 19.598 56.1146 18.9581 55.7397 18.294C55.3648 17.6298 54.8557 17.2351 54.2124 17.1098C53.5818 16.9773 52.8386 17.1526 51.9829 17.6357L48.4961 19.6039Z" fill="#F2F2F2"/>
<path d="M64.6601 25.4873L59.6213 10.935L62.3655 9.9848L66.5261 22.0009L73.8231 19.4743L74.7012 22.0105L64.6601 25.4873Z" fill="#F2F2F2"/>
<path d="M88.6806 6.50696C90.3404 7.86848 91.2882 9.68715 91.524 11.963C91.7598 14.2388 91.205 16.2131 89.8596 17.886C88.5142 19.5589 86.7181 20.5118 84.4715 20.7446C82.2249 20.9773 80.2716 20.413 78.6118 19.0514C76.952 17.6899 76.0042 15.8712 75.7684 13.5954C75.5326 11.3196 76.0874 9.34524 77.4328 7.67235C78.7782 5.99945 80.5743 5.04661 82.8209 4.81383C85.0675 4.58106 87.0208 5.14543 88.6806 6.50696ZM80.5025 17.0198C81.5344 17.8713 82.7652 18.223 84.1949 18.0748C85.6246 17.9267 86.7571 17.3302 87.5925 16.2852C88.4264 15.2256 88.7595 13.8861 88.5917 12.2668C88.424 10.6475 87.8241 9.41203 86.7922 8.56051C85.7588 7.6944 84.5272 7.33541 83.0975 7.48354C81.6678 7.63167 80.536 8.23553 79.7021 9.29511C78.8667 10.3401 78.5329 11.6723 78.7007 13.2916C78.8685 14.9109 79.4691 16.1537 80.5025 17.0198Z" fill="#F2F2F2"/>
<path d="M104.204 22.4487L101.705 15.7038L99.2737 15.3027L98.2566 21.4674L95.3913 20.9947L97.8983 5.80008L104.389 6.87089C106.053 7.14546 107.305 7.75344 108.146 8.69484C108.989 9.62177 109.302 10.7437 109.084 12.0605C108.731 14.2022 107.327 15.5018 104.874 15.9591L107.482 22.9895L104.204 22.4487ZM100.348 8.79077L99.6891 12.7848L103.314 13.3829C105.007 13.6622 105.964 13.1362 106.183 11.8049C106.403 10.4735 105.666 9.66819 103.973 9.38885L100.348 8.79077Z" fill="#F2F2F2"/>
<path d="M111.854 24.7341L118.017 10.6212L127.755 14.8739L126.716 17.253L119.64 14.1625L118.222 17.4084L124.734 20.2524L123.695 22.6314L117.183 19.7875L115.554 23.5173L122.691 26.6342L121.653 29.0132L111.854 24.7341Z" fill="#F2F2F2"/>
<path d="M140.85 35.4001C140.914 34.677 141.227 34.08 141.789 33.6092C142.352 33.1383 142.994 32.9349 143.717 32.9989C144.441 33.0629 145.038 33.376 145.508 33.9382C145.979 34.5004 146.183 35.1431 146.119 35.8662C146.055 36.5894 145.742 37.1863 145.179 37.6572C144.617 38.128 143.974 38.3314 143.251 38.2675C142.528 38.2035 141.931 37.8904 141.46 37.3282C140.99 36.766 140.786 36.1233 140.85 35.4001Z" fill="#F2F2F2"/>
<path d="M149.473 56.9518L163.414 50.4084L167.929 60.0274L165.579 61.1305L162.298 54.1402L159.091 55.6452L162.111 62.0778L159.761 63.1809L156.741 56.7483L153.057 58.4776L156.366 65.5276L154.016 66.6307L149.473 56.9518Z" fill="#F2F2F2"/>
<path d="M170.729 70.5806L166.418 74.2995L171.757 76.498L172.261 79.4024L164.594 76.2688L157.205 82.7106L156.674 79.6544L161.909 75.0828L155.443 72.5666L154.908 69.4887L163.939 73.1447L170.198 67.5244L170.729 70.5806Z" fill="#F2F2F2"/>
<path d="M157.647 86.3123L173.041 85.8638L173.244 92.8568C173.296 94.6308 172.897 96.0436 172.047 97.0955C171.213 98.1616 169.996 98.7179 168.398 98.7645C166.8 98.8111 165.546 98.3267 164.636 97.3114C163.742 96.3104 163.268 94.9229 163.217 93.149L163.097 89.0588L157.732 89.2151L157.647 86.3123ZM170.53 88.8422L165.692 88.9832L165.809 92.9855C165.837 93.9677 166.071 94.6945 166.511 95.1659C166.95 95.652 167.551 95.8839 168.314 95.8617C169.076 95.8395 169.663 95.573 170.073 95.0621C170.484 94.566 170.675 93.8267 170.647 92.8445L170.53 88.8422Z" fill="#F2F2F2"/>
<path d="M156.578 100.19L171.802 102.513L171.364 105.384L158.794 103.466L157.629 111.1L154.975 110.695L156.578 100.19Z" fill="#F2F2F2"/>
<path d="M161.314 129.191C159.306 129.95 157.257 129.863 155.167 128.932C153.077 128 151.643 126.534 150.865 124.533C150.087 122.532 150.158 120.5 151.077 118.437C151.997 116.374 153.461 114.963 155.469 114.205C157.478 113.446 159.527 113.532 161.616 114.464C163.706 115.395 165.14 116.862 165.918 118.863C166.696 120.863 166.625 122.895 165.706 124.958C164.786 127.021 163.322 128.432 161.314 129.191ZM156.286 116.857C155.033 117.326 154.114 118.217 153.529 119.53C152.944 120.843 152.895 122.122 153.384 123.367C153.886 124.619 154.88 125.576 156.367 126.239C157.854 126.902 159.224 126.999 160.477 126.529C161.743 126.066 162.669 125.178 163.254 123.865C163.84 122.553 163.881 121.27 163.379 120.019C162.891 118.774 161.903 117.819 160.416 117.157C158.929 116.494 157.552 116.394 156.286 116.857Z" fill="#F2F2F2"/>
<path d="M141.154 134.276L148.293 135.153L149.766 133.177L144.756 129.443L146.492 127.115L158.839 136.318L154.908 141.592C153.9 142.945 152.785 143.778 151.563 144.093C150.352 144.416 149.212 144.179 148.142 143.381C146.401 142.084 145.891 140.241 146.612 137.851L139.169 136.94L141.154 134.276ZM155.058 137.122L151.812 134.702L149.616 137.648C148.591 139.024 148.619 140.115 149.701 140.922C150.783 141.728 151.837 141.443 152.862 140.067L155.058 137.122Z" fill="#F2F2F2"/>
<path d="M136.559 138.817L147.031 150.108L139.24 157.334L137.475 155.431L143.137 150.18L140.728 147.583L135.518 152.415L133.753 150.511L138.963 145.679L136.195 142.695L130.485 147.991L128.72 146.088L136.559 138.817Z" fill="#F2F2F2"/>
<path d="M112.495 159.22C113.171 159.484 113.656 159.953 113.95 160.625C114.244 161.296 114.259 161.97 113.994 162.646C113.729 163.322 113.261 163.807 112.589 164.101C111.918 164.395 111.244 164.41 110.568 164.145C109.892 163.881 109.407 163.413 109.113 162.741C108.819 162.069 108.804 161.395 109.069 160.719C109.333 160.043 109.801 159.558 110.473 159.264C111.145 158.97 111.819 158.955 112.495 159.22Z" fill="#F2F2F2"/>
</svg>
